<mxfile host="app.diagrams.net" modified="2021-03-08T15:51:58.274Z" agent="5.0 (Macintosh; Intel Mac OS X 11_0_1) AppleWebKit/537.36 (KHTML, like Gecko) Chrome/89.0.4389.72 Safari/537.36" etag="oEVNYUOKOAf1T9zhQcad" version="14.4.4" type="github">
  <diagram id="EwOeWkMTZaeR5XXRuhUj" name="Page-1">
    <mxGraphModel dx="943" dy="560" grid="1" gridSize="10" guides="1" tooltips="1" connect="1" arrows="1" fold="1" page="1" pageScale="1" pageWidth="827" pageHeight="1169" math="0" shadow="0">
      <root>
        <mxCell id="0" />
        <mxCell id="1" parent="0" />
        <mxCell id="WMk4dA76J-lZ88mBp_z--3" value="" style="endArrow=none;html=1;" edge="1" parent="1">
          <mxGeometry width="50" height="50" relative="1" as="geometry">
            <mxPoint x="160" y="1000" as="sourcePoint" />
            <mxPoint x="160" y="120" as="targetPoint" />
          </mxGeometry>
        </mxCell>
        <mxCell id="WMk4dA76J-lZ88mBp_z--4" value="" style="endArrow=none;html=1;" edge="1" parent="1">
          <mxGeometry width="50" height="50" relative="1" as="geometry">
            <mxPoint x="120" y="200" as="sourcePoint" />
            <mxPoint x="520" y="200" as="targetPoint" />
          </mxGeometry>
        </mxCell>
        <mxCell id="WMk4dA76J-lZ88mBp_z--5" value="" style="endArrow=none;html=1;fillColor=#f8cecc;strokeColor=#b85450;strokeWidth=3;" edge="1" parent="1">
          <mxGeometry width="50" height="50" relative="1" as="geometry">
            <mxPoint x="240" y="1002" as="sourcePoint" />
            <mxPoint x="240" y="120" as="targetPoint" />
          </mxGeometry>
        </mxCell>
        <mxCell id="WMk4dA76J-lZ88mBp_z--6" value="" style="endArrow=none;html=1;fillColor=#d5e8d4;strokeColor=#82b366;strokeWidth=3;" edge="1" parent="1">
          <mxGeometry width="50" height="50" relative="1" as="geometry">
            <mxPoint x="280" y="1000" as="sourcePoint" />
            <mxPoint x="280" y="120" as="targetPoint" />
          </mxGeometry>
        </mxCell>
        <mxCell id="WMk4dA76J-lZ88mBp_z--7" value="" style="endArrow=none;html=1;" edge="1" parent="1">
          <mxGeometry width="50" height="50" relative="1" as="geometry">
            <mxPoint x="320" y="1000" as="sourcePoint" />
            <mxPoint x="320" y="120" as="targetPoint" />
          </mxGeometry>
        </mxCell>
        <mxCell id="WMk4dA76J-lZ88mBp_z--8" value="" style="endArrow=none;html=1;strokeWidth=3;fillColor=#f8cecc;strokeColor=#b85450;" edge="1" parent="1">
          <mxGeometry width="50" height="50" relative="1" as="geometry">
            <mxPoint x="400" y="1000" as="sourcePoint" />
            <mxPoint x="400" y="120" as="targetPoint" />
          </mxGeometry>
        </mxCell>
        <mxCell id="WMk4dA76J-lZ88mBp_z--9" value="" style="endArrow=none;html=1;fillColor=#d5e8d4;strokeColor=#82b366;strokeWidth=3;" edge="1" parent="1">
          <mxGeometry width="50" height="50" relative="1" as="geometry">
            <mxPoint x="440" y="1000" as="sourcePoint" />
            <mxPoint x="440" y="120" as="targetPoint" />
          </mxGeometry>
        </mxCell>
        <mxCell id="WMk4dA76J-lZ88mBp_z--10" value="" style="endArrow=none;html=1;" edge="1" parent="1">
          <mxGeometry width="50" height="50" relative="1" as="geometry">
            <mxPoint x="480" y="1000" as="sourcePoint" />
            <mxPoint x="480" y="120" as="targetPoint" />
          </mxGeometry>
        </mxCell>
        <mxCell id="WMk4dA76J-lZ88mBp_z--11" value="" style="endArrow=none;html=1;" edge="1" parent="1">
          <mxGeometry width="50" height="50" relative="1" as="geometry">
            <mxPoint x="120" y="120" as="sourcePoint" />
            <mxPoint x="200" y="120" as="targetPoint" />
          </mxGeometry>
        </mxCell>
        <mxCell id="WMk4dA76J-lZ88mBp_z--12" value="" style="endArrow=none;html=1;" edge="1" parent="1">
          <mxGeometry width="50" height="50" relative="1" as="geometry">
            <mxPoint x="230" y="120" as="sourcePoint" />
            <mxPoint x="330" y="120" as="targetPoint" />
          </mxGeometry>
        </mxCell>
        <mxCell id="WMk4dA76J-lZ88mBp_z--13" value="" style="endArrow=none;html=1;" edge="1" parent="1">
          <mxGeometry width="50" height="50" relative="1" as="geometry">
            <mxPoint x="390" y="120" as="sourcePoint" />
            <mxPoint x="490" y="120" as="targetPoint" />
          </mxGeometry>
        </mxCell>
        <mxCell id="WMk4dA76J-lZ88mBp_z--14" value="OF&lt;br&gt;MILLIONS" style="text;html=1;resizable=0;autosize=1;align=center;verticalAlign=middle;points=[];fillColor=none;strokeColor=none;rounded=0;" vertex="1" parent="1">
          <mxGeometry x="120" y="90" width="70" height="30" as="geometry" />
        </mxCell>
        <mxCell id="WMk4dA76J-lZ88mBp_z--15" value="OF&lt;br&gt;THOUSANDS" style="text;html=1;resizable=0;autosize=1;align=center;verticalAlign=middle;points=[];fillColor=none;strokeColor=none;rounded=0;" vertex="1" parent="1">
          <mxGeometry x="230" y="90" width="90" height="30" as="geometry" />
        </mxCell>
        <mxCell id="WMk4dA76J-lZ88mBp_z--16" value="SIMPLE" style="text;html=1;resizable=0;autosize=1;align=center;verticalAlign=middle;points=[];fillColor=none;strokeColor=none;rounded=0;" vertex="1" parent="1">
          <mxGeometry x="414" y="95" width="60" height="20" as="geometry" />
        </mxCell>
        <mxCell id="WMk4dA76J-lZ88mBp_z--17" value="UNITS" style="text;html=1;resizable=0;autosize=1;align=center;verticalAlign=middle;points=[];fillColor=none;strokeColor=none;rounded=0;rotation=-90;" vertex="1" parent="1">
          <mxGeometry x="450" y="170" width="50" height="20" as="geometry" />
        </mxCell>
        <mxCell id="WMk4dA76J-lZ88mBp_z--18" value="HUNDREDS" style="text;html=1;resizable=0;autosize=1;align=center;verticalAlign=middle;points=[];fillColor=none;strokeColor=none;rounded=0;rotation=-90;" vertex="1" parent="1">
          <mxGeometry x="350" y="150" width="80" height="20" as="geometry" />
        </mxCell>
        <mxCell id="WMk4dA76J-lZ88mBp_z--19" value="TENS" style="text;html=1;resizable=0;autosize=1;align=center;verticalAlign=middle;points=[];fillColor=none;strokeColor=none;rounded=0;rotation=-90;" vertex="1" parent="1">
          <mxGeometry x="410" y="170" width="50" height="20" as="geometry" />
        </mxCell>
        <mxCell id="WMk4dA76J-lZ88mBp_z--20" value="UNITS" style="text;html=1;resizable=0;autosize=1;align=center;verticalAlign=middle;points=[];fillColor=none;strokeColor=none;rounded=0;rotation=-90;" vertex="1" parent="1">
          <mxGeometry x="290" y="170" width="50" height="20" as="geometry" />
        </mxCell>
        <mxCell id="WMk4dA76J-lZ88mBp_z--21" value="TENS" style="text;html=1;resizable=0;autosize=1;align=center;verticalAlign=middle;points=[];fillColor=none;strokeColor=none;rounded=0;rotation=-90;" vertex="1" parent="1">
          <mxGeometry x="250" y="170" width="50" height="20" as="geometry" />
        </mxCell>
        <mxCell id="WMk4dA76J-lZ88mBp_z--22" value="HUNDREDS" style="text;html=1;resizable=0;autosize=1;align=center;verticalAlign=middle;points=[];fillColor=none;strokeColor=none;rounded=0;rotation=-90;" vertex="1" parent="1">
          <mxGeometry x="190" y="150" width="80" height="20" as="geometry" />
        </mxCell>
        <mxCell id="WMk4dA76J-lZ88mBp_z--23" value="UNITS" style="text;html=1;resizable=0;autosize=1;align=center;verticalAlign=middle;points=[];fillColor=none;strokeColor=none;rounded=0;rotation=-90;" vertex="1" parent="1">
          <mxGeometry x="130" y="170" width="50" height="20" as="geometry" />
        </mxCell>
        <mxCell id="WMk4dA76J-lZ88mBp_z--25" value="" style="endArrow=none;html=1;" edge="1" parent="1">
          <mxGeometry width="50" height="50" relative="1" as="geometry">
            <mxPoint x="120" y="240" as="sourcePoint" />
            <mxPoint x="520" y="240" as="targetPoint" />
          </mxGeometry>
        </mxCell>
        <mxCell id="WMk4dA76J-lZ88mBp_z--26" value="" style="endArrow=none;html=1;" edge="1" parent="1">
          <mxGeometry width="50" height="50" relative="1" as="geometry">
            <mxPoint x="120" y="280" as="sourcePoint" />
            <mxPoint x="520" y="280" as="targetPoint" />
          </mxGeometry>
        </mxCell>
        <mxCell id="WMk4dA76J-lZ88mBp_z--27" value="" style="endArrow=none;html=1;" edge="1" parent="1">
          <mxGeometry width="50" height="50" relative="1" as="geometry">
            <mxPoint x="120" y="320" as="sourcePoint" />
            <mxPoint x="520" y="320" as="targetPoint" />
          </mxGeometry>
        </mxCell>
        <mxCell id="WMk4dA76J-lZ88mBp_z--28" value="" style="endArrow=none;html=1;" edge="1" parent="1">
          <mxGeometry width="50" height="50" relative="1" as="geometry">
            <mxPoint x="120" y="360" as="sourcePoint" />
            <mxPoint x="520" y="360" as="targetPoint" />
          </mxGeometry>
        </mxCell>
        <mxCell id="WMk4dA76J-lZ88mBp_z--29" value="" style="endArrow=none;html=1;" edge="1" parent="1">
          <mxGeometry width="50" height="50" relative="1" as="geometry">
            <mxPoint x="120" y="400" as="sourcePoint" />
            <mxPoint x="520" y="400" as="targetPoint" />
          </mxGeometry>
        </mxCell>
        <mxCell id="WMk4dA76J-lZ88mBp_z--30" value="" style="endArrow=none;html=1;" edge="1" parent="1">
          <mxGeometry width="50" height="50" relative="1" as="geometry">
            <mxPoint x="120" y="440" as="sourcePoint" />
            <mxPoint x="520" y="440" as="targetPoint" />
          </mxGeometry>
        </mxCell>
        <mxCell id="WMk4dA76J-lZ88mBp_z--31" value="" style="endArrow=none;html=1;" edge="1" parent="1">
          <mxGeometry width="50" height="50" relative="1" as="geometry">
            <mxPoint x="120" y="480" as="sourcePoint" />
            <mxPoint x="520" y="480" as="targetPoint" />
          </mxGeometry>
        </mxCell>
        <mxCell id="WMk4dA76J-lZ88mBp_z--32" value="" style="endArrow=none;html=1;" edge="1" parent="1">
          <mxGeometry width="50" height="50" relative="1" as="geometry">
            <mxPoint x="120" y="520" as="sourcePoint" />
            <mxPoint x="520" y="520" as="targetPoint" />
          </mxGeometry>
        </mxCell>
        <mxCell id="WMk4dA76J-lZ88mBp_z--33" value="" style="endArrow=none;html=1;" edge="1" parent="1">
          <mxGeometry width="50" height="50" relative="1" as="geometry">
            <mxPoint x="120" y="560" as="sourcePoint" />
            <mxPoint x="520" y="560" as="targetPoint" />
          </mxGeometry>
        </mxCell>
        <mxCell id="WMk4dA76J-lZ88mBp_z--34" value="" style="endArrow=none;html=1;" edge="1" parent="1">
          <mxGeometry width="50" height="50" relative="1" as="geometry">
            <mxPoint x="120" y="600" as="sourcePoint" />
            <mxPoint x="520" y="600" as="targetPoint" />
          </mxGeometry>
        </mxCell>
        <mxCell id="WMk4dA76J-lZ88mBp_z--35" value="" style="endArrow=none;html=1;" edge="1" parent="1">
          <mxGeometry width="50" height="50" relative="1" as="geometry">
            <mxPoint x="120" y="640" as="sourcePoint" />
            <mxPoint x="520" y="640" as="targetPoint" />
          </mxGeometry>
        </mxCell>
        <mxCell id="WMk4dA76J-lZ88mBp_z--36" value="" style="endArrow=none;html=1;" edge="1" parent="1">
          <mxGeometry width="50" height="50" relative="1" as="geometry">
            <mxPoint x="120" y="680" as="sourcePoint" />
            <mxPoint x="520" y="680" as="targetPoint" />
          </mxGeometry>
        </mxCell>
        <mxCell id="WMk4dA76J-lZ88mBp_z--37" value="" style="endArrow=none;html=1;" edge="1" parent="1">
          <mxGeometry width="50" height="50" relative="1" as="geometry">
            <mxPoint x="120" y="840" as="sourcePoint" />
            <mxPoint x="520" y="840" as="targetPoint" />
          </mxGeometry>
        </mxCell>
        <mxCell id="WMk4dA76J-lZ88mBp_z--38" value="" style="endArrow=none;html=1;" edge="1" parent="1">
          <mxGeometry width="50" height="50" relative="1" as="geometry">
            <mxPoint x="120" y="880" as="sourcePoint" />
            <mxPoint x="520" y="880" as="targetPoint" />
          </mxGeometry>
        </mxCell>
        <mxCell id="WMk4dA76J-lZ88mBp_z--39" value="" style="endArrow=none;html=1;" edge="1" parent="1">
          <mxGeometry width="50" height="50" relative="1" as="geometry">
            <mxPoint x="120" y="920" as="sourcePoint" />
            <mxPoint x="520" y="920" as="targetPoint" />
          </mxGeometry>
        </mxCell>
        <mxCell id="WMk4dA76J-lZ88mBp_z--40" value="" style="endArrow=none;html=1;" edge="1" parent="1">
          <mxGeometry width="50" height="50" relative="1" as="geometry">
            <mxPoint x="120" y="960" as="sourcePoint" />
            <mxPoint x="520" y="960" as="targetPoint" />
          </mxGeometry>
        </mxCell>
        <mxCell id="WMk4dA76J-lZ88mBp_z--41" value="" style="endArrow=none;html=1;" edge="1" parent="1">
          <mxGeometry width="50" height="50" relative="1" as="geometry">
            <mxPoint x="115" y="760" as="sourcePoint" />
            <mxPoint x="515" y="760" as="targetPoint" />
          </mxGeometry>
        </mxCell>
        <mxCell id="WMk4dA76J-lZ88mBp_z--42" value="" style="endArrow=none;html=1;" edge="1" parent="1">
          <mxGeometry width="50" height="50" relative="1" as="geometry">
            <mxPoint x="120" y="800" as="sourcePoint" />
            <mxPoint x="520" y="800" as="targetPoint" />
          </mxGeometry>
        </mxCell>
        <mxCell id="WMk4dA76J-lZ88mBp_z--43" value="" style="endArrow=none;html=1;" edge="1" parent="1">
          <mxGeometry width="50" height="50" relative="1" as="geometry">
            <mxPoint x="120" y="720" as="sourcePoint" />
            <mxPoint x="520" y="720" as="targetPoint" />
          </mxGeometry>
        </mxCell>
        <mxCell id="WMk4dA76J-lZ88mBp_z--44" value="&lt;font style=&quot;font-size: 59px&quot;&gt;,&lt;/font&gt;" style="text;html=1;resizable=0;autosize=1;align=center;verticalAlign=middle;points=[];fillColor=none;strokeColor=none;rounded=0;rotation=0;" vertex="1" parent="1">
          <mxGeometry x="180" y="200" width="30" height="40" as="geometry" />
        </mxCell>
        <mxCell id="WMk4dA76J-lZ88mBp_z--46" value="&lt;font style=&quot;font-size: 59px&quot;&gt;,&lt;/font&gt;" style="text;html=1;resizable=0;autosize=1;align=center;verticalAlign=middle;points=[];fillColor=none;strokeColor=none;rounded=0;rotation=0;" vertex="1" parent="1">
          <mxGeometry x="180" y="240" width="30" height="40" as="geometry" />
        </mxCell>
        <mxCell id="WMk4dA76J-lZ88mBp_z--56" value="&lt;font style=&quot;font-size: 59px&quot;&gt;,&lt;/font&gt;" style="text;html=1;resizable=0;autosize=1;align=center;verticalAlign=middle;points=[];fillColor=none;strokeColor=none;rounded=0;rotation=0;" vertex="1" parent="1">
          <mxGeometry x="180" y="280" width="30" height="40" as="geometry" />
        </mxCell>
        <mxCell id="WMk4dA76J-lZ88mBp_z--57" value="&lt;font style=&quot;font-size: 59px&quot;&gt;,&lt;/font&gt;" style="text;html=1;resizable=0;autosize=1;align=center;verticalAlign=middle;points=[];fillColor=none;strokeColor=none;rounded=0;rotation=0;" vertex="1" parent="1">
          <mxGeometry x="180" y="319" width="30" height="40" as="geometry" />
        </mxCell>
        <mxCell id="WMk4dA76J-lZ88mBp_z--62" value="&lt;font style=&quot;font-size: 59px&quot;&gt;,&lt;/font&gt;" style="text;html=1;resizable=0;autosize=1;align=center;verticalAlign=middle;points=[];fillColor=none;strokeColor=none;rounded=0;rotation=0;" vertex="1" parent="1">
          <mxGeometry x="180" y="359" width="30" height="40" as="geometry" />
        </mxCell>
        <mxCell id="WMk4dA76J-lZ88mBp_z--63" value="&lt;font style=&quot;font-size: 59px&quot;&gt;,&lt;/font&gt;" style="text;html=1;resizable=0;autosize=1;align=center;verticalAlign=middle;points=[];fillColor=none;strokeColor=none;rounded=0;rotation=0;" vertex="1" parent="1">
          <mxGeometry x="180" y="399" width="30" height="40" as="geometry" />
        </mxCell>
        <mxCell id="WMk4dA76J-lZ88mBp_z--64" value="&lt;font style=&quot;font-size: 59px&quot;&gt;,&lt;/font&gt;" style="text;html=1;resizable=0;autosize=1;align=center;verticalAlign=middle;points=[];fillColor=none;strokeColor=none;rounded=0;rotation=0;" vertex="1" parent="1">
          <mxGeometry x="180" y="439" width="30" height="40" as="geometry" />
        </mxCell>
        <mxCell id="WMk4dA76J-lZ88mBp_z--65" value="&lt;font style=&quot;font-size: 59px&quot;&gt;,&lt;/font&gt;" style="text;html=1;resizable=0;autosize=1;align=center;verticalAlign=middle;points=[];fillColor=none;strokeColor=none;rounded=0;rotation=0;" vertex="1" parent="1">
          <mxGeometry x="180" y="478" width="30" height="40" as="geometry" />
        </mxCell>
        <mxCell id="WMk4dA76J-lZ88mBp_z--66" value="&lt;font style=&quot;font-size: 59px&quot;&gt;,&lt;/font&gt;" style="text;html=1;resizable=0;autosize=1;align=center;verticalAlign=middle;points=[];fillColor=none;strokeColor=none;rounded=0;rotation=0;" vertex="1" parent="1">
          <mxGeometry x="180" y="518" width="30" height="40" as="geometry" />
        </mxCell>
        <mxCell id="WMk4dA76J-lZ88mBp_z--68" value="&lt;font style=&quot;font-size: 59px&quot;&gt;,&lt;/font&gt;" style="text;html=1;resizable=0;autosize=1;align=center;verticalAlign=middle;points=[];fillColor=none;strokeColor=none;rounded=0;rotation=0;" vertex="1" parent="1">
          <mxGeometry x="180" y="558" width="30" height="40" as="geometry" />
        </mxCell>
        <mxCell id="WMk4dA76J-lZ88mBp_z--69" value="&lt;font style=&quot;font-size: 59px&quot;&gt;,&lt;/font&gt;" style="text;html=1;resizable=0;autosize=1;align=center;verticalAlign=middle;points=[];fillColor=none;strokeColor=none;rounded=0;rotation=0;" vertex="1" parent="1">
          <mxGeometry x="180" y="598" width="30" height="40" as="geometry" />
        </mxCell>
        <mxCell id="WMk4dA76J-lZ88mBp_z--71" value="&lt;font style=&quot;font-size: 59px&quot;&gt;,&lt;/font&gt;" style="text;html=1;resizable=0;autosize=1;align=center;verticalAlign=middle;points=[];fillColor=none;strokeColor=none;rounded=0;rotation=0;" vertex="1" parent="1">
          <mxGeometry x="180" y="638" width="30" height="40" as="geometry" />
        </mxCell>
        <mxCell id="WMk4dA76J-lZ88mBp_z--72" value="&lt;font style=&quot;font-size: 59px&quot;&gt;,&lt;/font&gt;" style="text;html=1;resizable=0;autosize=1;align=center;verticalAlign=middle;points=[];fillColor=none;strokeColor=none;rounded=0;rotation=0;" vertex="1" parent="1">
          <mxGeometry x="180" y="680" width="30" height="40" as="geometry" />
        </mxCell>
        <mxCell id="WMk4dA76J-lZ88mBp_z--73" value="&lt;font style=&quot;font-size: 59px&quot;&gt;,&lt;/font&gt;" style="text;html=1;resizable=0;autosize=1;align=center;verticalAlign=middle;points=[];fillColor=none;strokeColor=none;rounded=0;rotation=0;" vertex="1" parent="1">
          <mxGeometry x="180" y="720" width="30" height="40" as="geometry" />
        </mxCell>
        <mxCell id="WMk4dA76J-lZ88mBp_z--75" value="&lt;font style=&quot;font-size: 59px&quot;&gt;,&lt;/font&gt;" style="text;html=1;resizable=0;autosize=1;align=center;verticalAlign=middle;points=[];fillColor=none;strokeColor=none;rounded=0;rotation=0;" vertex="1" parent="1">
          <mxGeometry x="180" y="760" width="30" height="40" as="geometry" />
        </mxCell>
        <mxCell id="WMk4dA76J-lZ88mBp_z--76" value="&lt;font style=&quot;font-size: 59px&quot;&gt;,&lt;/font&gt;" style="text;html=1;resizable=0;autosize=1;align=center;verticalAlign=middle;points=[];fillColor=none;strokeColor=none;rounded=0;rotation=0;" vertex="1" parent="1">
          <mxGeometry x="180" y="800" width="30" height="40" as="geometry" />
        </mxCell>
        <mxCell id="WMk4dA76J-lZ88mBp_z--77" value="&lt;font style=&quot;font-size: 59px&quot;&gt;,&lt;/font&gt;" style="text;html=1;resizable=0;autosize=1;align=center;verticalAlign=middle;points=[];fillColor=none;strokeColor=none;rounded=0;rotation=0;" vertex="1" parent="1">
          <mxGeometry x="180" y="840" width="30" height="40" as="geometry" />
        </mxCell>
        <mxCell id="WMk4dA76J-lZ88mBp_z--78" value="&lt;font style=&quot;font-size: 59px&quot;&gt;,&lt;/font&gt;" style="text;html=1;resizable=0;autosize=1;align=center;verticalAlign=middle;points=[];fillColor=none;strokeColor=none;rounded=0;rotation=0;" vertex="1" parent="1">
          <mxGeometry x="180" y="880" width="30" height="40" as="geometry" />
        </mxCell>
        <mxCell id="WMk4dA76J-lZ88mBp_z--80" value="&lt;font style=&quot;font-size: 59px&quot;&gt;,&lt;/font&gt;" style="text;html=1;resizable=0;autosize=1;align=center;verticalAlign=middle;points=[];fillColor=none;strokeColor=none;rounded=0;rotation=0;" vertex="1" parent="1">
          <mxGeometry x="180" y="920" width="30" height="40" as="geometry" />
        </mxCell>
        <mxCell id="WMk4dA76J-lZ88mBp_z--82" value="&lt;font style=&quot;font-size: 59px&quot;&gt;,&lt;/font&gt;" style="text;html=1;resizable=0;autosize=1;align=center;verticalAlign=middle;points=[];fillColor=none;strokeColor=none;rounded=0;rotation=0;" vertex="1" parent="1">
          <mxGeometry x="340" y="200" width="30" height="40" as="geometry" />
        </mxCell>
        <mxCell id="WMk4dA76J-lZ88mBp_z--83" value="&lt;font style=&quot;font-size: 59px&quot;&gt;,&lt;/font&gt;" style="text;html=1;resizable=0;autosize=1;align=center;verticalAlign=middle;points=[];fillColor=none;strokeColor=none;rounded=0;rotation=0;" vertex="1" parent="1">
          <mxGeometry x="340" y="240" width="30" height="40" as="geometry" />
        </mxCell>
        <mxCell id="WMk4dA76J-lZ88mBp_z--84" value="&lt;font style=&quot;font-size: 59px&quot;&gt;,&lt;/font&gt;" style="text;html=1;resizable=0;autosize=1;align=center;verticalAlign=middle;points=[];fillColor=none;strokeColor=none;rounded=0;rotation=0;" vertex="1" parent="1">
          <mxGeometry x="340" y="279" width="30" height="40" as="geometry" />
        </mxCell>
        <mxCell id="WMk4dA76J-lZ88mBp_z--85" value="&lt;font style=&quot;font-size: 59px&quot;&gt;,&lt;/font&gt;" style="text;html=1;resizable=0;autosize=1;align=center;verticalAlign=middle;points=[];fillColor=none;strokeColor=none;rounded=0;rotation=0;" vertex="1" parent="1">
          <mxGeometry x="340" y="319" width="30" height="40" as="geometry" />
        </mxCell>
        <mxCell id="WMk4dA76J-lZ88mBp_z--86" value="&lt;font style=&quot;font-size: 59px&quot;&gt;,&lt;/font&gt;" style="text;html=1;resizable=0;autosize=1;align=center;verticalAlign=middle;points=[];fillColor=none;strokeColor=none;rounded=0;rotation=0;" vertex="1" parent="1">
          <mxGeometry x="340" y="359" width="30" height="40" as="geometry" />
        </mxCell>
        <mxCell id="WMk4dA76J-lZ88mBp_z--87" value="&lt;font style=&quot;font-size: 59px&quot;&gt;,&lt;/font&gt;" style="text;html=1;resizable=0;autosize=1;align=center;verticalAlign=middle;points=[];fillColor=none;strokeColor=none;rounded=0;rotation=0;" vertex="1" parent="1">
          <mxGeometry x="340" y="399" width="30" height="40" as="geometry" />
        </mxCell>
        <mxCell id="WMk4dA76J-lZ88mBp_z--88" value="&lt;font style=&quot;font-size: 59px&quot;&gt;,&lt;/font&gt;" style="text;html=1;resizable=0;autosize=1;align=center;verticalAlign=middle;points=[];fillColor=none;strokeColor=none;rounded=0;rotation=0;" vertex="1" parent="1">
          <mxGeometry x="340" y="438" width="30" height="40" as="geometry" />
        </mxCell>
        <mxCell id="WMk4dA76J-lZ88mBp_z--89" value="&lt;font style=&quot;font-size: 59px&quot;&gt;,&lt;/font&gt;" style="text;html=1;resizable=0;autosize=1;align=center;verticalAlign=middle;points=[];fillColor=none;strokeColor=none;rounded=0;rotation=0;" vertex="1" parent="1">
          <mxGeometry x="340" y="478" width="30" height="40" as="geometry" />
        </mxCell>
        <mxCell id="WMk4dA76J-lZ88mBp_z--90" value="&lt;font style=&quot;font-size: 59px&quot;&gt;,&lt;/font&gt;" style="text;html=1;resizable=0;autosize=1;align=center;verticalAlign=middle;points=[];fillColor=none;strokeColor=none;rounded=0;rotation=0;" vertex="1" parent="1">
          <mxGeometry x="340" y="518" width="30" height="40" as="geometry" />
        </mxCell>
        <mxCell id="WMk4dA76J-lZ88mBp_z--91" value="&lt;font style=&quot;font-size: 59px&quot;&gt;,&lt;/font&gt;" style="text;html=1;resizable=0;autosize=1;align=center;verticalAlign=middle;points=[];fillColor=none;strokeColor=none;rounded=0;rotation=0;" vertex="1" parent="1">
          <mxGeometry x="340" y="558" width="30" height="40" as="geometry" />
        </mxCell>
        <mxCell id="WMk4dA76J-lZ88mBp_z--92" value="&lt;font style=&quot;font-size: 59px&quot;&gt;,&lt;/font&gt;" style="text;html=1;resizable=0;autosize=1;align=center;verticalAlign=middle;points=[];fillColor=none;strokeColor=none;rounded=0;rotation=0;" vertex="1" parent="1">
          <mxGeometry x="340" y="598" width="30" height="40" as="geometry" />
        </mxCell>
        <mxCell id="WMk4dA76J-lZ88mBp_z--93" value="&lt;font style=&quot;font-size: 59px&quot;&gt;,&lt;/font&gt;" style="text;html=1;resizable=0;autosize=1;align=center;verticalAlign=middle;points=[];fillColor=none;strokeColor=none;rounded=0;rotation=0;" vertex="1" parent="1">
          <mxGeometry x="340" y="640" width="30" height="40" as="geometry" />
        </mxCell>
        <mxCell id="WMk4dA76J-lZ88mBp_z--94" value="&lt;font style=&quot;font-size: 59px&quot;&gt;,&lt;/font&gt;" style="text;html=1;resizable=0;autosize=1;align=center;verticalAlign=middle;points=[];fillColor=none;strokeColor=none;rounded=0;rotation=0;" vertex="1" parent="1">
          <mxGeometry x="340" y="680" width="30" height="40" as="geometry" />
        </mxCell>
        <mxCell id="WMk4dA76J-lZ88mBp_z--95" value="&lt;font style=&quot;font-size: 59px&quot;&gt;,&lt;/font&gt;" style="text;html=1;resizable=0;autosize=1;align=center;verticalAlign=middle;points=[];fillColor=none;strokeColor=none;rounded=0;rotation=0;" vertex="1" parent="1">
          <mxGeometry x="340" y="720" width="30" height="40" as="geometry" />
        </mxCell>
        <mxCell id="WMk4dA76J-lZ88mBp_z--96" value="&lt;font style=&quot;font-size: 59px&quot;&gt;,&lt;/font&gt;" style="text;html=1;resizable=0;autosize=1;align=center;verticalAlign=middle;points=[];fillColor=none;strokeColor=none;rounded=0;rotation=0;" vertex="1" parent="1">
          <mxGeometry x="340" y="760" width="30" height="40" as="geometry" />
        </mxCell>
        <mxCell id="WMk4dA76J-lZ88mBp_z--97" value="&lt;font style=&quot;font-size: 59px&quot;&gt;,&lt;/font&gt;" style="text;html=1;resizable=0;autosize=1;align=center;verticalAlign=middle;points=[];fillColor=none;strokeColor=none;rounded=0;rotation=0;" vertex="1" parent="1">
          <mxGeometry x="340" y="800" width="30" height="40" as="geometry" />
        </mxCell>
        <mxCell id="WMk4dA76J-lZ88mBp_z--98" value="&lt;font style=&quot;font-size: 59px&quot;&gt;,&lt;/font&gt;" style="text;html=1;resizable=0;autosize=1;align=center;verticalAlign=middle;points=[];fillColor=none;strokeColor=none;rounded=0;rotation=0;" vertex="1" parent="1">
          <mxGeometry x="340" y="840" width="30" height="40" as="geometry" />
        </mxCell>
        <mxCell id="WMk4dA76J-lZ88mBp_z--99" value="&lt;font style=&quot;font-size: 59px&quot;&gt;,&lt;/font&gt;" style="text;html=1;resizable=0;autosize=1;align=center;verticalAlign=middle;points=[];fillColor=none;strokeColor=none;rounded=0;rotation=0;" vertex="1" parent="1">
          <mxGeometry x="340" y="880" width="30" height="40" as="geometry" />
        </mxCell>
        <mxCell id="WMk4dA76J-lZ88mBp_z--100" value="&lt;font style=&quot;font-size: 59px&quot;&gt;,&lt;/font&gt;" style="text;html=1;resizable=0;autosize=1;align=center;verticalAlign=middle;points=[];fillColor=none;strokeColor=none;rounded=0;rotation=0;" vertex="1" parent="1">
          <mxGeometry x="340" y="920" width="30" height="40" as="geometry" />
        </mxCell>
        <mxCell id="WMk4dA76J-lZ88mBp_z--179" value="" style="endArrow=none;html=1;" edge="1" parent="1">
          <mxGeometry width="50" height="50" relative="1" as="geometry">
            <mxPoint x="605" y="1000" as="sourcePoint" />
            <mxPoint x="605" y="120" as="targetPoint" />
          </mxGeometry>
        </mxCell>
        <mxCell id="WMk4dA76J-lZ88mBp_z--180" value="" style="endArrow=none;html=1;" edge="1" parent="1">
          <mxGeometry width="50" height="50" relative="1" as="geometry">
            <mxPoint x="565" y="200" as="sourcePoint" />
            <mxPoint x="965" y="200" as="targetPoint" />
          </mxGeometry>
        </mxCell>
        <mxCell id="WMk4dA76J-lZ88mBp_z--181" value="" style="endArrow=none;html=1;fillColor=#f8cecc;strokeColor=#b85450;strokeWidth=3;" edge="1" parent="1">
          <mxGeometry width="50" height="50" relative="1" as="geometry">
            <mxPoint x="685" y="1002" as="sourcePoint" />
            <mxPoint x="685" y="120" as="targetPoint" />
          </mxGeometry>
        </mxCell>
        <mxCell id="WMk4dA76J-lZ88mBp_z--182" value="" style="endArrow=none;html=1;fillColor=#d5e8d4;strokeColor=#82b366;strokeWidth=3;" edge="1" parent="1">
          <mxGeometry width="50" height="50" relative="1" as="geometry">
            <mxPoint x="725" y="1000" as="sourcePoint" />
            <mxPoint x="725" y="120" as="targetPoint" />
          </mxGeometry>
        </mxCell>
        <mxCell id="WMk4dA76J-lZ88mBp_z--183" value="" style="endArrow=none;html=1;" edge="1" parent="1">
          <mxGeometry width="50" height="50" relative="1" as="geometry">
            <mxPoint x="765" y="1000" as="sourcePoint" />
            <mxPoint x="765" y="120" as="targetPoint" />
          </mxGeometry>
        </mxCell>
        <mxCell id="WMk4dA76J-lZ88mBp_z--184" value="" style="endArrow=none;html=1;strokeWidth=3;fillColor=#f8cecc;strokeColor=#b85450;" edge="1" parent="1">
          <mxGeometry width="50" height="50" relative="1" as="geometry">
            <mxPoint x="845" y="1000" as="sourcePoint" />
            <mxPoint x="845" y="120" as="targetPoint" />
          </mxGeometry>
        </mxCell>
        <mxCell id="WMk4dA76J-lZ88mBp_z--185" value="" style="endArrow=none;html=1;fillColor=#d5e8d4;strokeColor=#82b366;strokeWidth=3;" edge="1" parent="1">
          <mxGeometry width="50" height="50" relative="1" as="geometry">
            <mxPoint x="885" y="1000" as="sourcePoint" />
            <mxPoint x="885" y="120" as="targetPoint" />
          </mxGeometry>
        </mxCell>
        <mxCell id="WMk4dA76J-lZ88mBp_z--186" value="" style="endArrow=none;html=1;" edge="1" parent="1">
          <mxGeometry width="50" height="50" relative="1" as="geometry">
            <mxPoint x="925" y="1000" as="sourcePoint" />
            <mxPoint x="925" y="120" as="targetPoint" />
          </mxGeometry>
        </mxCell>
        <mxCell id="WMk4dA76J-lZ88mBp_z--187" value="" style="endArrow=none;html=1;" edge="1" parent="1">
          <mxGeometry width="50" height="50" relative="1" as="geometry">
            <mxPoint x="565" y="120" as="sourcePoint" />
            <mxPoint x="645" y="120" as="targetPoint" />
          </mxGeometry>
        </mxCell>
        <mxCell id="WMk4dA76J-lZ88mBp_z--188" value="" style="endArrow=none;html=1;" edge="1" parent="1">
          <mxGeometry width="50" height="50" relative="1" as="geometry">
            <mxPoint x="675" y="120" as="sourcePoint" />
            <mxPoint x="775" y="120" as="targetPoint" />
          </mxGeometry>
        </mxCell>
        <mxCell id="WMk4dA76J-lZ88mBp_z--189" value="" style="endArrow=none;html=1;" edge="1" parent="1">
          <mxGeometry width="50" height="50" relative="1" as="geometry">
            <mxPoint x="835" y="120" as="sourcePoint" />
            <mxPoint x="935" y="120" as="targetPoint" />
          </mxGeometry>
        </mxCell>
        <mxCell id="WMk4dA76J-lZ88mBp_z--190" value="OF&lt;br&gt;MILLIONS" style="text;html=1;resizable=0;autosize=1;align=center;verticalAlign=middle;points=[];fillColor=none;strokeColor=none;rounded=0;" vertex="1" parent="1">
          <mxGeometry x="565" y="90" width="70" height="30" as="geometry" />
        </mxCell>
        <mxCell id="WMk4dA76J-lZ88mBp_z--191" value="OF&lt;br&gt;THOUSANDS" style="text;html=1;resizable=0;autosize=1;align=center;verticalAlign=middle;points=[];fillColor=none;strokeColor=none;rounded=0;" vertex="1" parent="1">
          <mxGeometry x="675" y="90" width="90" height="30" as="geometry" />
        </mxCell>
        <mxCell id="WMk4dA76J-lZ88mBp_z--192" value="SIMPLE" style="text;html=1;resizable=0;autosize=1;align=center;verticalAlign=middle;points=[];fillColor=none;strokeColor=none;rounded=0;" vertex="1" parent="1">
          <mxGeometry x="859" y="95" width="60" height="20" as="geometry" />
        </mxCell>
        <mxCell id="WMk4dA76J-lZ88mBp_z--193" value="UNITS" style="text;html=1;resizable=0;autosize=1;align=center;verticalAlign=middle;points=[];fillColor=none;strokeColor=none;rounded=0;rotation=-90;" vertex="1" parent="1">
          <mxGeometry x="895" y="170" width="50" height="20" as="geometry" />
        </mxCell>
        <mxCell id="WMk4dA76J-lZ88mBp_z--194" value="HUNDREDS" style="text;html=1;resizable=0;autosize=1;align=center;verticalAlign=middle;points=[];fillColor=none;strokeColor=none;rounded=0;rotation=-90;" vertex="1" parent="1">
          <mxGeometry x="795" y="150" width="80" height="20" as="geometry" />
        </mxCell>
        <mxCell id="WMk4dA76J-lZ88mBp_z--195" value="TENS" style="text;html=1;resizable=0;autosize=1;align=center;verticalAlign=middle;points=[];fillColor=none;strokeColor=none;rounded=0;rotation=-90;" vertex="1" parent="1">
          <mxGeometry x="855" y="170" width="50" height="20" as="geometry" />
        </mxCell>
        <mxCell id="WMk4dA76J-lZ88mBp_z--196" value="UNITS" style="text;html=1;resizable=0;autosize=1;align=center;verticalAlign=middle;points=[];fillColor=none;strokeColor=none;rounded=0;rotation=-90;" vertex="1" parent="1">
          <mxGeometry x="735" y="170" width="50" height="20" as="geometry" />
        </mxCell>
        <mxCell id="WMk4dA76J-lZ88mBp_z--197" value="TENS" style="text;html=1;resizable=0;autosize=1;align=center;verticalAlign=middle;points=[];fillColor=none;strokeColor=none;rounded=0;rotation=-90;" vertex="1" parent="1">
          <mxGeometry x="695" y="170" width="50" height="20" as="geometry" />
        </mxCell>
        <mxCell id="WMk4dA76J-lZ88mBp_z--198" value="HUNDREDS" style="text;html=1;resizable=0;autosize=1;align=center;verticalAlign=middle;points=[];fillColor=none;strokeColor=none;rounded=0;rotation=-90;" vertex="1" parent="1">
          <mxGeometry x="635" y="150" width="80" height="20" as="geometry" />
        </mxCell>
        <mxCell id="WMk4dA76J-lZ88mBp_z--199" value="UNITS" style="text;html=1;resizable=0;autosize=1;align=center;verticalAlign=middle;points=[];fillColor=none;strokeColor=none;rounded=0;rotation=-90;" vertex="1" parent="1">
          <mxGeometry x="575" y="170" width="50" height="20" as="geometry" />
        </mxCell>
        <mxCell id="WMk4dA76J-lZ88mBp_z--200" value="" style="endArrow=none;html=1;" edge="1" parent="1">
          <mxGeometry width="50" height="50" relative="1" as="geometry">
            <mxPoint x="565" y="240" as="sourcePoint" />
            <mxPoint x="965" y="240" as="targetPoint" />
          </mxGeometry>
        </mxCell>
        <mxCell id="WMk4dA76J-lZ88mBp_z--201" value="" style="endArrow=none;html=1;" edge="1" parent="1">
          <mxGeometry width="50" height="50" relative="1" as="geometry">
            <mxPoint x="565" y="280" as="sourcePoint" />
            <mxPoint x="965" y="280" as="targetPoint" />
          </mxGeometry>
        </mxCell>
        <mxCell id="WMk4dA76J-lZ88mBp_z--202" value="" style="endArrow=none;html=1;" edge="1" parent="1">
          <mxGeometry width="50" height="50" relative="1" as="geometry">
            <mxPoint x="565" y="320" as="sourcePoint" />
            <mxPoint x="965" y="320" as="targetPoint" />
          </mxGeometry>
        </mxCell>
        <mxCell id="WMk4dA76J-lZ88mBp_z--203" value="" style="endArrow=none;html=1;" edge="1" parent="1">
          <mxGeometry width="50" height="50" relative="1" as="geometry">
            <mxPoint x="565" y="360" as="sourcePoint" />
            <mxPoint x="965" y="360" as="targetPoint" />
          </mxGeometry>
        </mxCell>
        <mxCell id="WMk4dA76J-lZ88mBp_z--204" value="" style="endArrow=none;html=1;" edge="1" parent="1">
          <mxGeometry width="50" height="50" relative="1" as="geometry">
            <mxPoint x="565" y="400" as="sourcePoint" />
            <mxPoint x="965" y="400" as="targetPoint" />
          </mxGeometry>
        </mxCell>
        <mxCell id="WMk4dA76J-lZ88mBp_z--205" value="" style="endArrow=none;html=1;" edge="1" parent="1">
          <mxGeometry width="50" height="50" relative="1" as="geometry">
            <mxPoint x="565" y="440" as="sourcePoint" />
            <mxPoint x="965" y="440" as="targetPoint" />
          </mxGeometry>
        </mxCell>
        <mxCell id="WMk4dA76J-lZ88mBp_z--206" value="" style="endArrow=none;html=1;" edge="1" parent="1">
          <mxGeometry width="50" height="50" relative="1" as="geometry">
            <mxPoint x="565" y="480" as="sourcePoint" />
            <mxPoint x="965" y="480" as="targetPoint" />
          </mxGeometry>
        </mxCell>
        <mxCell id="WMk4dA76J-lZ88mBp_z--207" value="" style="endArrow=none;html=1;" edge="1" parent="1">
          <mxGeometry width="50" height="50" relative="1" as="geometry">
            <mxPoint x="565" y="520" as="sourcePoint" />
            <mxPoint x="965" y="520" as="targetPoint" />
          </mxGeometry>
        </mxCell>
        <mxCell id="WMk4dA76J-lZ88mBp_z--208" value="" style="endArrow=none;html=1;" edge="1" parent="1">
          <mxGeometry width="50" height="50" relative="1" as="geometry">
            <mxPoint x="565" y="560" as="sourcePoint" />
            <mxPoint x="965" y="560" as="targetPoint" />
          </mxGeometry>
        </mxCell>
        <mxCell id="WMk4dA76J-lZ88mBp_z--209" value="" style="endArrow=none;html=1;" edge="1" parent="1">
          <mxGeometry width="50" height="50" relative="1" as="geometry">
            <mxPoint x="565" y="600" as="sourcePoint" />
            <mxPoint x="965" y="600" as="targetPoint" />
          </mxGeometry>
        </mxCell>
        <mxCell id="WMk4dA76J-lZ88mBp_z--210" value="" style="endArrow=none;html=1;" edge="1" parent="1">
          <mxGeometry width="50" height="50" relative="1" as="geometry">
            <mxPoint x="565" y="640" as="sourcePoint" />
            <mxPoint x="965" y="640" as="targetPoint" />
          </mxGeometry>
        </mxCell>
        <mxCell id="WMk4dA76J-lZ88mBp_z--211" value="" style="endArrow=none;html=1;" edge="1" parent="1">
          <mxGeometry width="50" height="50" relative="1" as="geometry">
            <mxPoint x="565" y="680" as="sourcePoint" />
            <mxPoint x="965" y="680" as="targetPoint" />
          </mxGeometry>
        </mxCell>
        <mxCell id="WMk4dA76J-lZ88mBp_z--212" value="" style="endArrow=none;html=1;" edge="1" parent="1">
          <mxGeometry width="50" height="50" relative="1" as="geometry">
            <mxPoint x="565" y="840" as="sourcePoint" />
            <mxPoint x="965" y="840" as="targetPoint" />
          </mxGeometry>
        </mxCell>
        <mxCell id="WMk4dA76J-lZ88mBp_z--213" value="" style="endArrow=none;html=1;" edge="1" parent="1">
          <mxGeometry width="50" height="50" relative="1" as="geometry">
            <mxPoint x="565" y="880" as="sourcePoint" />
            <mxPoint x="965" y="880" as="targetPoint" />
          </mxGeometry>
        </mxCell>
        <mxCell id="WMk4dA76J-lZ88mBp_z--214" value="" style="endArrow=none;html=1;" edge="1" parent="1">
          <mxGeometry width="50" height="50" relative="1" as="geometry">
            <mxPoint x="565" y="920" as="sourcePoint" />
            <mxPoint x="965" y="920" as="targetPoint" />
          </mxGeometry>
        </mxCell>
        <mxCell id="WMk4dA76J-lZ88mBp_z--215" value="" style="endArrow=none;html=1;" edge="1" parent="1">
          <mxGeometry width="50" height="50" relative="1" as="geometry">
            <mxPoint x="565" y="960" as="sourcePoint" />
            <mxPoint x="965" y="960" as="targetPoint" />
          </mxGeometry>
        </mxCell>
        <mxCell id="WMk4dA76J-lZ88mBp_z--216" value="" style="endArrow=none;html=1;" edge="1" parent="1">
          <mxGeometry width="50" height="50" relative="1" as="geometry">
            <mxPoint x="560" y="760" as="sourcePoint" />
            <mxPoint x="960" y="760" as="targetPoint" />
          </mxGeometry>
        </mxCell>
        <mxCell id="WMk4dA76J-lZ88mBp_z--217" value="" style="endArrow=none;html=1;" edge="1" parent="1">
          <mxGeometry width="50" height="50" relative="1" as="geometry">
            <mxPoint x="565" y="800" as="sourcePoint" />
            <mxPoint x="965" y="800" as="targetPoint" />
          </mxGeometry>
        </mxCell>
        <mxCell id="WMk4dA76J-lZ88mBp_z--218" value="" style="endArrow=none;html=1;" edge="1" parent="1">
          <mxGeometry width="50" height="50" relative="1" as="geometry">
            <mxPoint x="565" y="720" as="sourcePoint" />
            <mxPoint x="965" y="720" as="targetPoint" />
          </mxGeometry>
        </mxCell>
        <mxCell id="WMk4dA76J-lZ88mBp_z--219" value="&lt;font style=&quot;font-size: 59px&quot;&gt;,&lt;/font&gt;" style="text;html=1;resizable=0;autosize=1;align=center;verticalAlign=middle;points=[];fillColor=none;strokeColor=none;rounded=0;rotation=0;" vertex="1" parent="1">
          <mxGeometry x="625" y="200" width="30" height="40" as="geometry" />
        </mxCell>
        <mxCell id="WMk4dA76J-lZ88mBp_z--220" value="&lt;font style=&quot;font-size: 59px&quot;&gt;,&lt;/font&gt;" style="text;html=1;resizable=0;autosize=1;align=center;verticalAlign=middle;points=[];fillColor=none;strokeColor=none;rounded=0;rotation=0;" vertex="1" parent="1">
          <mxGeometry x="625" y="240" width="30" height="40" as="geometry" />
        </mxCell>
        <mxCell id="WMk4dA76J-lZ88mBp_z--221" value="&lt;font style=&quot;font-size: 59px&quot;&gt;,&lt;/font&gt;" style="text;html=1;resizable=0;autosize=1;align=center;verticalAlign=middle;points=[];fillColor=none;strokeColor=none;rounded=0;rotation=0;" vertex="1" parent="1">
          <mxGeometry x="625" y="280" width="30" height="40" as="geometry" />
        </mxCell>
        <mxCell id="WMk4dA76J-lZ88mBp_z--222" value="&lt;font style=&quot;font-size: 59px&quot;&gt;,&lt;/font&gt;" style="text;html=1;resizable=0;autosize=1;align=center;verticalAlign=middle;points=[];fillColor=none;strokeColor=none;rounded=0;rotation=0;" vertex="1" parent="1">
          <mxGeometry x="625" y="319" width="30" height="40" as="geometry" />
        </mxCell>
        <mxCell id="WMk4dA76J-lZ88mBp_z--223" value="&lt;font style=&quot;font-size: 59px&quot;&gt;,&lt;/font&gt;" style="text;html=1;resizable=0;autosize=1;align=center;verticalAlign=middle;points=[];fillColor=none;strokeColor=none;rounded=0;rotation=0;" vertex="1" parent="1">
          <mxGeometry x="625" y="359" width="30" height="40" as="geometry" />
        </mxCell>
        <mxCell id="WMk4dA76J-lZ88mBp_z--224" value="&lt;font style=&quot;font-size: 59px&quot;&gt;,&lt;/font&gt;" style="text;html=1;resizable=0;autosize=1;align=center;verticalAlign=middle;points=[];fillColor=none;strokeColor=none;rounded=0;rotation=0;" vertex="1" parent="1">
          <mxGeometry x="625" y="399" width="30" height="40" as="geometry" />
        </mxCell>
        <mxCell id="WMk4dA76J-lZ88mBp_z--225" value="&lt;font style=&quot;font-size: 59px&quot;&gt;,&lt;/font&gt;" style="text;html=1;resizable=0;autosize=1;align=center;verticalAlign=middle;points=[];fillColor=none;strokeColor=none;rounded=0;rotation=0;" vertex="1" parent="1">
          <mxGeometry x="625" y="439" width="30" height="40" as="geometry" />
        </mxCell>
        <mxCell id="WMk4dA76J-lZ88mBp_z--226" value="&lt;font style=&quot;font-size: 59px&quot;&gt;,&lt;/font&gt;" style="text;html=1;resizable=0;autosize=1;align=center;verticalAlign=middle;points=[];fillColor=none;strokeColor=none;rounded=0;rotation=0;" vertex="1" parent="1">
          <mxGeometry x="625" y="478" width="30" height="40" as="geometry" />
        </mxCell>
        <mxCell id="WMk4dA76J-lZ88mBp_z--227" value="&lt;font style=&quot;font-size: 59px&quot;&gt;,&lt;/font&gt;" style="text;html=1;resizable=0;autosize=1;align=center;verticalAlign=middle;points=[];fillColor=none;strokeColor=none;rounded=0;rotation=0;" vertex="1" parent="1">
          <mxGeometry x="625" y="518" width="30" height="40" as="geometry" />
        </mxCell>
        <mxCell id="WMk4dA76J-lZ88mBp_z--228" value="&lt;font style=&quot;font-size: 59px&quot;&gt;,&lt;/font&gt;" style="text;html=1;resizable=0;autosize=1;align=center;verticalAlign=middle;points=[];fillColor=none;strokeColor=none;rounded=0;rotation=0;" vertex="1" parent="1">
          <mxGeometry x="625" y="558" width="30" height="40" as="geometry" />
        </mxCell>
        <mxCell id="WMk4dA76J-lZ88mBp_z--229" value="&lt;font style=&quot;font-size: 59px&quot;&gt;,&lt;/font&gt;" style="text;html=1;resizable=0;autosize=1;align=center;verticalAlign=middle;points=[];fillColor=none;strokeColor=none;rounded=0;rotation=0;" vertex="1" parent="1">
          <mxGeometry x="625" y="598" width="30" height="40" as="geometry" />
        </mxCell>
        <mxCell id="WMk4dA76J-lZ88mBp_z--230" value="&lt;font style=&quot;font-size: 59px&quot;&gt;,&lt;/font&gt;" style="text;html=1;resizable=0;autosize=1;align=center;verticalAlign=middle;points=[];fillColor=none;strokeColor=none;rounded=0;rotation=0;" vertex="1" parent="1">
          <mxGeometry x="625" y="638" width="30" height="40" as="geometry" />
        </mxCell>
        <mxCell id="WMk4dA76J-lZ88mBp_z--231" value="&lt;font style=&quot;font-size: 59px&quot;&gt;,&lt;/font&gt;" style="text;html=1;resizable=0;autosize=1;align=center;verticalAlign=middle;points=[];fillColor=none;strokeColor=none;rounded=0;rotation=0;" vertex="1" parent="1">
          <mxGeometry x="625" y="680" width="30" height="40" as="geometry" />
        </mxCell>
        <mxCell id="WMk4dA76J-lZ88mBp_z--232" value="&lt;font style=&quot;font-size: 59px&quot;&gt;,&lt;/font&gt;" style="text;html=1;resizable=0;autosize=1;align=center;verticalAlign=middle;points=[];fillColor=none;strokeColor=none;rounded=0;rotation=0;" vertex="1" parent="1">
          <mxGeometry x="625" y="720" width="30" height="40" as="geometry" />
        </mxCell>
        <mxCell id="WMk4dA76J-lZ88mBp_z--233" value="&lt;font style=&quot;font-size: 59px&quot;&gt;,&lt;/font&gt;" style="text;html=1;resizable=0;autosize=1;align=center;verticalAlign=middle;points=[];fillColor=none;strokeColor=none;rounded=0;rotation=0;" vertex="1" parent="1">
          <mxGeometry x="625" y="760" width="30" height="40" as="geometry" />
        </mxCell>
        <mxCell id="WMk4dA76J-lZ88mBp_z--234" value="&lt;font style=&quot;font-size: 59px&quot;&gt;,&lt;/font&gt;" style="text;html=1;resizable=0;autosize=1;align=center;verticalAlign=middle;points=[];fillColor=none;strokeColor=none;rounded=0;rotation=0;" vertex="1" parent="1">
          <mxGeometry x="625" y="800" width="30" height="40" as="geometry" />
        </mxCell>
        <mxCell id="WMk4dA76J-lZ88mBp_z--235" value="&lt;font style=&quot;font-size: 59px&quot;&gt;,&lt;/font&gt;" style="text;html=1;resizable=0;autosize=1;align=center;verticalAlign=middle;points=[];fillColor=none;strokeColor=none;rounded=0;rotation=0;" vertex="1" parent="1">
          <mxGeometry x="625" y="840" width="30" height="40" as="geometry" />
        </mxCell>
        <mxCell id="WMk4dA76J-lZ88mBp_z--236" value="&lt;font style=&quot;font-size: 59px&quot;&gt;,&lt;/font&gt;" style="text;html=1;resizable=0;autosize=1;align=center;verticalAlign=middle;points=[];fillColor=none;strokeColor=none;rounded=0;rotation=0;" vertex="1" parent="1">
          <mxGeometry x="625" y="880" width="30" height="40" as="geometry" />
        </mxCell>
        <mxCell id="WMk4dA76J-lZ88mBp_z--237" value="&lt;font style=&quot;font-size: 59px&quot;&gt;,&lt;/font&gt;" style="text;html=1;resizable=0;autosize=1;align=center;verticalAlign=middle;points=[];fillColor=none;strokeColor=none;rounded=0;rotation=0;" vertex="1" parent="1">
          <mxGeometry x="625" y="920" width="30" height="40" as="geometry" />
        </mxCell>
        <mxCell id="WMk4dA76J-lZ88mBp_z--238" value="&lt;font style=&quot;font-size: 59px&quot;&gt;,&lt;/font&gt;" style="text;html=1;resizable=0;autosize=1;align=center;verticalAlign=middle;points=[];fillColor=none;strokeColor=none;rounded=0;rotation=0;" vertex="1" parent="1">
          <mxGeometry x="785" y="200" width="30" height="40" as="geometry" />
        </mxCell>
        <mxCell id="WMk4dA76J-lZ88mBp_z--239" value="&lt;font style=&quot;font-size: 59px&quot;&gt;,&lt;/font&gt;" style="text;html=1;resizable=0;autosize=1;align=center;verticalAlign=middle;points=[];fillColor=none;strokeColor=none;rounded=0;rotation=0;" vertex="1" parent="1">
          <mxGeometry x="785" y="240" width="30" height="40" as="geometry" />
        </mxCell>
        <mxCell id="WMk4dA76J-lZ88mBp_z--240" value="&lt;font style=&quot;font-size: 59px&quot;&gt;,&lt;/font&gt;" style="text;html=1;resizable=0;autosize=1;align=center;verticalAlign=middle;points=[];fillColor=none;strokeColor=none;rounded=0;rotation=0;" vertex="1" parent="1">
          <mxGeometry x="785" y="279" width="30" height="40" as="geometry" />
        </mxCell>
        <mxCell id="WMk4dA76J-lZ88mBp_z--241" value="&lt;font style=&quot;font-size: 59px&quot;&gt;,&lt;/font&gt;" style="text;html=1;resizable=0;autosize=1;align=center;verticalAlign=middle;points=[];fillColor=none;strokeColor=none;rounded=0;rotation=0;" vertex="1" parent="1">
          <mxGeometry x="785" y="319" width="30" height="40" as="geometry" />
        </mxCell>
        <mxCell id="WMk4dA76J-lZ88mBp_z--242" value="&lt;font style=&quot;font-size: 59px&quot;&gt;,&lt;/font&gt;" style="text;html=1;resizable=0;autosize=1;align=center;verticalAlign=middle;points=[];fillColor=none;strokeColor=none;rounded=0;rotation=0;" vertex="1" parent="1">
          <mxGeometry x="785" y="359" width="30" height="40" as="geometry" />
        </mxCell>
        <mxCell id="WMk4dA76J-lZ88mBp_z--243" value="&lt;font style=&quot;font-size: 59px&quot;&gt;,&lt;/font&gt;" style="text;html=1;resizable=0;autosize=1;align=center;verticalAlign=middle;points=[];fillColor=none;strokeColor=none;rounded=0;rotation=0;" vertex="1" parent="1">
          <mxGeometry x="785" y="399" width="30" height="40" as="geometry" />
        </mxCell>
        <mxCell id="WMk4dA76J-lZ88mBp_z--244" value="&lt;font style=&quot;font-size: 59px&quot;&gt;,&lt;/font&gt;" style="text;html=1;resizable=0;autosize=1;align=center;verticalAlign=middle;points=[];fillColor=none;strokeColor=none;rounded=0;rotation=0;" vertex="1" parent="1">
          <mxGeometry x="785" y="438" width="30" height="40" as="geometry" />
        </mxCell>
        <mxCell id="WMk4dA76J-lZ88mBp_z--245" value="&lt;font style=&quot;font-size: 59px&quot;&gt;,&lt;/font&gt;" style="text;html=1;resizable=0;autosize=1;align=center;verticalAlign=middle;points=[];fillColor=none;strokeColor=none;rounded=0;rotation=0;" vertex="1" parent="1">
          <mxGeometry x="785" y="478" width="30" height="40" as="geometry" />
        </mxCell>
        <mxCell id="WMk4dA76J-lZ88mBp_z--246" value="&lt;font style=&quot;font-size: 59px&quot;&gt;,&lt;/font&gt;" style="text;html=1;resizable=0;autosize=1;align=center;verticalAlign=middle;points=[];fillColor=none;strokeColor=none;rounded=0;rotation=0;" vertex="1" parent="1">
          <mxGeometry x="785" y="518" width="30" height="40" as="geometry" />
        </mxCell>
        <mxCell id="WMk4dA76J-lZ88mBp_z--247" value="&lt;font style=&quot;font-size: 59px&quot;&gt;,&lt;/font&gt;" style="text;html=1;resizable=0;autosize=1;align=center;verticalAlign=middle;points=[];fillColor=none;strokeColor=none;rounded=0;rotation=0;" vertex="1" parent="1">
          <mxGeometry x="785" y="558" width="30" height="40" as="geometry" />
        </mxCell>
        <mxCell id="WMk4dA76J-lZ88mBp_z--248" value="&lt;font style=&quot;font-size: 59px&quot;&gt;,&lt;/font&gt;" style="text;html=1;resizable=0;autosize=1;align=center;verticalAlign=middle;points=[];fillColor=none;strokeColor=none;rounded=0;rotation=0;" vertex="1" parent="1">
          <mxGeometry x="785" y="598" width="30" height="40" as="geometry" />
        </mxCell>
        <mxCell id="WMk4dA76J-lZ88mBp_z--249" value="&lt;font style=&quot;font-size: 59px&quot;&gt;,&lt;/font&gt;" style="text;html=1;resizable=0;autosize=1;align=center;verticalAlign=middle;points=[];fillColor=none;strokeColor=none;rounded=0;rotation=0;" vertex="1" parent="1">
          <mxGeometry x="785" y="640" width="30" height="40" as="geometry" />
        </mxCell>
        <mxCell id="WMk4dA76J-lZ88mBp_z--250" value="&lt;font style=&quot;font-size: 59px&quot;&gt;,&lt;/font&gt;" style="text;html=1;resizable=0;autosize=1;align=center;verticalAlign=middle;points=[];fillColor=none;strokeColor=none;rounded=0;rotation=0;" vertex="1" parent="1">
          <mxGeometry x="785" y="680" width="30" height="40" as="geometry" />
        </mxCell>
        <mxCell id="WMk4dA76J-lZ88mBp_z--251" value="&lt;font style=&quot;font-size: 59px&quot;&gt;,&lt;/font&gt;" style="text;html=1;resizable=0;autosize=1;align=center;verticalAlign=middle;points=[];fillColor=none;strokeColor=none;rounded=0;rotation=0;" vertex="1" parent="1">
          <mxGeometry x="785" y="720" width="30" height="40" as="geometry" />
        </mxCell>
        <mxCell id="WMk4dA76J-lZ88mBp_z--252" value="&lt;font style=&quot;font-size: 59px&quot;&gt;,&lt;/font&gt;" style="text;html=1;resizable=0;autosize=1;align=center;verticalAlign=middle;points=[];fillColor=none;strokeColor=none;rounded=0;rotation=0;" vertex="1" parent="1">
          <mxGeometry x="785" y="760" width="30" height="40" as="geometry" />
        </mxCell>
        <mxCell id="WMk4dA76J-lZ88mBp_z--253" value="&lt;font style=&quot;font-size: 59px&quot;&gt;,&lt;/font&gt;" style="text;html=1;resizable=0;autosize=1;align=center;verticalAlign=middle;points=[];fillColor=none;strokeColor=none;rounded=0;rotation=0;" vertex="1" parent="1">
          <mxGeometry x="785" y="800" width="30" height="40" as="geometry" />
        </mxCell>
        <mxCell id="WMk4dA76J-lZ88mBp_z--254" value="&lt;font style=&quot;font-size: 59px&quot;&gt;,&lt;/font&gt;" style="text;html=1;resizable=0;autosize=1;align=center;verticalAlign=middle;points=[];fillColor=none;strokeColor=none;rounded=0;rotation=0;" vertex="1" parent="1">
          <mxGeometry x="785" y="840" width="30" height="40" as="geometry" />
        </mxCell>
        <mxCell id="WMk4dA76J-lZ88mBp_z--255" value="&lt;font style=&quot;font-size: 59px&quot;&gt;,&lt;/font&gt;" style="text;html=1;resizable=0;autosize=1;align=center;verticalAlign=middle;points=[];fillColor=none;strokeColor=none;rounded=0;rotation=0;" vertex="1" parent="1">
          <mxGeometry x="785" y="880" width="30" height="40" as="geometry" />
        </mxCell>
        <mxCell id="WMk4dA76J-lZ88mBp_z--256" value="&lt;font style=&quot;font-size: 59px&quot;&gt;,&lt;/font&gt;" style="text;html=1;resizable=0;autosize=1;align=center;verticalAlign=middle;points=[];fillColor=none;strokeColor=none;rounded=0;rotation=0;" vertex="1" parent="1">
          <mxGeometry x="785" y="920" width="30" height="40" as="geometry" />
        </mxCell>
      </root>
    </mxGraphModel>
  </diagram>
</mxfile>
